<svg xmlns="http://www.w3.org/2000/svg" width="20" height="20" viewBox="0 0 20 20" fill="none">
  <path fill-rule="evenodd" clip-rule="evenodd" d="M7.1884 3.9145C6.97887 3.70496 6.97886 3.36523 7.1884 3.15569C7.39794 2.94615 7.73767 2.94615 7.94721 3.15569L13.8114 9.01986C13.9419 9.15038 13.9911 9.3314 13.9591 9.50001C13.9911 9.66862 13.9419 9.84964 13.8114 9.98015L7.94721 15.8443C7.73767 16.0539 7.39794 16.0539 7.1884 15.8443C6.97886 15.6348 6.97887 15.2951 7.1884 15.0855L12.7739 9.50001L7.1884 3.9145Z" fill="#1C0A41"/>
  <mask id="mask0_64_11980" style="mask-type:luminance" maskUnits="userSpaceOnUse" x="7" y="2" width="7" height="15">
    <path fill-rule="evenodd" clip-rule="evenodd" d="M7.1884 3.9145C6.97887 3.70496 6.97886 3.36523 7.1884 3.15569C7.39794 2.94615 7.73767 2.94615 7.94721 3.15569L13.8114 9.01986C13.9419 9.15038 13.9911 9.3314 13.9591 9.50001C13.9911 9.66862 13.9419 9.84964 13.8114 9.98015L7.94721 15.8443C7.73767 16.0539 7.39794 16.0539 7.1884 15.8443C6.97886 15.6348 6.97887 15.2951 7.1884 15.0855L12.7739 9.50001L7.1884 3.9145Z" fill="white"/>
  </mask>
  <g mask="url(#mask0_64_11980)">
  </g>
</svg>