<svg xmlns="http://www.w3.org/2000/svg" width="20" height="20" viewBox="0 0 20 20" fill="none">
  <g opacity="0.2">
    <path fill-rule="evenodd" clip-rule="evenodd" d="M13.8116 3.9145C14.0211 3.70496 14.0211 3.36523 13.8116 3.15569C13.6021 2.94615 13.2623 2.94615 13.0528 3.15569L7.18861 9.01986C7.0581 9.15038 7.00888 9.3314 7.04095 9.50001C7.00888 9.66862 7.0581 9.84964 7.18861 9.98015L13.0528 15.8443C13.2623 16.0539 13.6021 16.0539 13.8116 15.8443C14.0211 15.6348 14.0211 15.2951 13.8116 15.0855L8.22609 9.50001L13.8116 3.9145Z" fill="#1C0A41"/>
    <mask id="mask0_64_11976" style="mask-type:luminance" maskUnits="userSpaceOnUse" x="7" y="2" width="7" height="15">
      <path fill-rule="evenodd" clip-rule="evenodd" d="M13.8116 3.9145C14.0211 3.70496 14.0211 3.36523 13.8116 3.15569C13.6021 2.94615 13.2623 2.94615 13.0528 3.15569L7.18861 9.01986C7.0581 9.15038 7.00888 9.3314 7.04095 9.50001C7.00888 9.66862 7.0581 9.84964 7.18861 9.98015L13.0528 15.8443C13.2623 16.0539 13.6021 16.0539 13.8116 15.8443C14.0211 15.6348 14.0211 15.2951 13.8116 15.0855L8.22609 9.50001L13.8116 3.9145Z" fill="white"/>
    </mask>
    <g mask="url(#mask0_64_11976)">
    </g>
  </g>
</svg>